<svg xmlns="http://www.w3.org/2000/svg" viewBox="0 0 448 512" fill="currentColor"><!--! Font Awesome Free 6.4.2 by @fontawesome - https://fontawesome.com License - https://fontawesome.com/license (Commercial License) Copyright 2023 Fonticons, Inc. --><path d="M352 224c53 0 96-43 96-96s-43-96-96-96s-96 43-96 96c0 4 .2 8 .7 11.9l-94.1 47c-18.2-16.1-42.1-25.9-68.4-25.9c-53 0-96 43-96 96s43 96 96 96c26.3 0 50.2-9.9 68.4-25.9l94.1 47c-.5 3.9-.7 7.9-.7 11.9c0 53 43 96 96 96s96-43 96-96s-43-96-96-96c-26.3 0-50.2 9.9-68.4 25.9l-94.1-47c.5-3.9 .7-7.9 .7-11.9c0-4-.2-8-.7-11.9l94.1-47c18.2 16.1 42.1 25.9 68.4 25.9z"/></svg>
